<?xml version="1.0" standalone="no"?>
<!DOCTYPE svg PUBLIC "-//W3C//DTD SVG 20010904//EN"
 "http://www.w3.org/TR/2001/REC-SVG-20010904/DTD/svg10.dtd">
<svg version="1.0" xmlns="http://www.w3.org/2000/svg"
 width="395.000000pt" height="395.000000pt" viewBox="0 0 395.000000 395.000000"
 preserveAspectRatio="xMidYMid meet">
<metadata>
Created by potrace 1.14, written by Peter Selinger 2001-2017
</metadata>
<g transform="translate(0.000000,395.000000) scale(0.100000,-0.100000)"
fill="#000000" stroke="none">
<path d="M1450 3788 c-23 -38 -27 -118 -9 -182 19 -70 16 -223 -6 -278 -4 -10
-3 -18 3 -18 6 0 18 -3 28 -7 12 -4 15 -3 10 5 -9 15 9 15 35 2 27 -15 24 2
-7 39 -14 17 -21 31 -14 31 7 0 9 8 5 21 -6 18 -4 20 16 14 18 -6 21 -4 16 9
-5 14 -3 15 13 6 16 -8 18 -8 14 4 -3 8 -17 16 -32 18 -14 2 -27 8 -29 14 -5
15 156 25 175 11 8 -7 12 -5 12 6 0 11 6 15 18 11 14 -5 14 -3 -2 10 -11 9
-30 16 -42 16 -35 0 -124 21 -122 28 5 25 -18 66 -44 76 l-29 13 41 13 c23 7
44 18 47 23 3 5 -3 6 -15 3 -23 -8 -48 25 -38 49 3 8 -1 21 -9 29 -16 16 -9
50 7 40 6 -4 9 -1 6 6 -8 26 -28 21 -48 -12z m67 -234 c-3 -3 -12 -4 -19 -1
-8 3 -5 6 6 6 11 1 17 -2 13 -5z"/>
<path d="M1560 3710 c0 -5 5 -10 11 -10 5 0 7 5 4 10 -3 6 -8 10 -11 10 -2 0
-4 -4 -4 -10z"/>
<path d="M2665 3710 c3 -5 8 -10 11 -10 2 0 4 5 4 10 0 6 -5 10 -11 10 -5 0
-7 -4 -4 -10z"/>
<path d="M1528 3703 c7 -3 16 -2 19 1 4 3 -2 6 -13 5 -11 0 -14 -3 -6 -6z"/>
<path d="M1585 3680 c-3 -5 3 -10 15 -10 12 0 18 5 15 10 -3 6 -10 10 -15 10
-5 0 -12 -4 -15 -10z"/>
<path d="M2654 3644 c3 -8 6 -18 6 -20 0 -3 5 -2 10 1 15 9 12 22 -6 29 -12 5
-15 2 -10 -10z"/>
<path d="M2415 3630 c-3 -5 1 -10 10 -10 9 0 13 5 10 10 -3 6 -8 10 -10 10 -2
0 -7 -4 -10 -10z"/>
<path d="M2400 3599 c0 -5 5 -7 10 -4 6 3 10 8 10 11 0 2 -4 4 -10 4 -5 0 -10
-5 -10 -11z"/>
<path d="M2656 3595 c4 -8 8 -15 10 -15 2 0 4 7 4 15 0 8 -4 15 -10 15 -5 0
-7 -7 -4 -15z"/>
<path d="M2363 3569 c9 -6 14 -16 11 -22 -4 -7 -3 -8 1 -4 18 16 13 37 -8 37
-20 -1 -20 -2 -4 -11z"/>
<path d="M2630 3560 c-11 -7 -11 -10 -2 -10 7 0 10 -4 7 -10 -3 -5 -2 -10 3
-10 5 0 12 9 15 20 6 22 0 25 -23 10z"/>
<path d="M2404 3464 c-9 -35 11 -55 29 -29 8 10 19 15 25 11 8 -5 10 -1 5 10
-5 14 -1 15 28 10 23 -5 29 -4 19 3 -23 14 -65 17 -65 4 0 -17 -15 -29 -16
-12 -1 8 -1 17 0 22 3 20 -19 4 -25 -19z"/>
<path d="M1620 3462 c0 -5 7 -13 16 -16 10 -4 14 -1 12 6 -5 15 -28 23 -28 10z"/>
<path d="M2566 3461 c-4 -5 3 -15 15 -21 18 -10 20 -9 17 6 -4 20 -23 30 -32
15z"/>
<path d="M2556 3371 c-4 -7 -5 -15 -2 -18 9 -9 19 4 14 18 -4 11 -6 11 -12 0z"/>
<path d="M1428 3278 c-10 -10 -18 -23 -18 -30 0 -6 6 -4 13 7 8 10 19 15 25
11 7 -4 12 -1 12 8 0 23 -13 25 -32 4z"/>
<path d="M1400 3196 c0 -2 7 -7 16 -10 8 -3 12 -2 9 4 -6 10 -25 14 -25 6z"/>
<path d="M1398 3153 c-21 -5 -32 -33 -13 -33 8 0 15 4 15 9 0 5 8 11 18 13 9
2 13 6 7 9 -5 3 -17 4 -27 2z"/>
<path d="M1677 3151 c-10 -4 -19 -9 -19 -11 -3 -15 87 -89 138 -114 32 -16 67
-33 76 -37 27 -13 28 -12 29 29 1 21 3 28 6 17 8 -31 19 -38 42 -26 22 12 29
41 9 41 -6 0 -8 3 -5 7 10 9 -14 34 -26 26 -6 -3 -7 -1 -3 5 4 7 2 12 -4 12
-6 0 -8 5 -5 10 9 14 -8 13 -23 -2 -9 -9 -16 -8 -29 4 -10 9 -49 24 -86 32
-75 18 -74 18 -100 7z"/>
<path d="M1875 3120 c3 -5 8 -10 11 -10 2 0 4 5 4 10 0 6 -5 10 -11 10 -5 0
-7 -4 -4 -10z"/>
<path d="M1385 3110 l-20 -9 20 0 c11 0 27 4 35 9 13 9 13 10 0 9 -8 0 -24 -4
-35 -9z"/>
<path d="M1557 3099 c7 -7 15 -10 18 -7 3 3 -2 9 -12 12 -14 6 -15 5 -6 -5z"/>
<path d="M2217 3085 c-78 -27 -104 -76 -39 -74 51 1 87 13 87 27 0 7 4 12 9
11 5 0 13 5 17 13 7 11 9 10 9 -1 0 -11 4 -9 15 5 8 10 15 22 15 27 0 12 -35
8 -48 -5 -10 -10 -15 -10 -20 -1 -5 8 -17 8 -45 -2z"/>
<path d="M1350 3037 c0 -31 -5 -59 -11 -62 -12 -8 -6 -130 9 -180 10 -34 17
-35 102 -11 30 9 84 15 120 15 l65 -2 -85 -8 c-81 -8 -169 -32 -181 -51 -7
-11 1 -68 10 -66 18 2 31 -3 31 -14 0 -6 -3 -9 -6 -5 -6 5 -15 -1 -50 -32 -12
-10 -12 -16 -2 -28 10 -13 14 -11 31 11 10 14 36 35 58 48 21 12 39 26 39 30
0 5 5 6 10 3 6 -3 10 -2 10 3 0 6 16 13 35 16 20 4 33 11 30 17 -8 11 5 12 24
0 11 -7 3 -13 -30 -22 -59 -18 -154 -75 -174 -105 -9 -14 -20 -22 -25 -19 -5
3 -11 -14 -14 -37 -3 -24 -8 -61 -11 -83 -7 -55 -7 -173 0 -184 15 -26 16
-119 0 -161 -9 -25 -18 -79 -21 -120 -3 -41 -10 -76 -15 -78 -5 -2 -9 -18 -9
-36 0 -18 -4 -36 -10 -42 -5 -5 -10 -28 -12 -51 -2 -23 -5 -39 -7 -37 -9 9
-40 -72 -35 -91 l6 -20 -16 20 c-12 14 -14 15 -10 4 3 -10 1 -20 -5 -24 -6 -3
-10 -16 -10 -28 1 -17 2 -18 6 -4 2 9 9 17 14 17 13 0 11 -13 -7 -38 -9 -13
-13 -29 -10 -37 3 -8 1 -15 -5 -15 -6 0 -7 -4 -4 -10 3 -5 2 -10 -4 -10 -6 0
-8 -7 -5 -15 4 -8 1 -15 -5 -15 -6 0 -8 -6 -5 -14 3 -8 1 -17 -5 -21 -6 -3
-11 -29 -11 -56 0 -31 -4 -48 -10 -44 -6 4 -10 -6 -11 -22 0 -25 -1 -26 -9 -8
-7 17 -9 15 -9 -12 -1 -18 -6 -33 -12 -33 -7 0 -9 -9 -6 -21 3 -12 0 -22 -9
-26 -8 -3 -14 -16 -14 -29 0 -13 -5 -24 -11 -24 -6 0 -8 -7 -5 -16 4 -11 -1
-18 -14 -21 -11 -3 -17 -9 -14 -14 3 -5 10 -7 15 -4 5 4 9 2 9 -2 0 -5 -10
-14 -22 -22 -21 -13 -22 -13 -9 2 16 20 5 23 -14 4 -11 -12 -10 -16 6 -28 24
-17 24 -26 -1 -34 -12 -4 -20 -16 -21 -28 0 -21 -1 -21 -9 -2 -5 11 -9 14 -9
7 -1 -7 -8 -20 -16 -28 -13 -13 -18 -34 -14 -60 0 -4 -5 -11 -13 -15 -11 -7
-10 -11 2 -19 12 -8 12 -10 1 -10 -9 0 -12 -9 -9 -30 3 -18 -1 -35 -8 -41 -9
-8 -11 -17 -4 -28 5 -9 5 -23 0 -31 -4 -7 -6 -19 -3 -27 3 -7 0 -13 -6 -13 -6
0 -8 -8 -5 -17 5 -15 4 -16 -5 -2 -6 9 -7 29 -2 52 5 20 6 38 3 41 -10 10 -53
6 -47 -4 3 -5 -1 -10 -10 -10 -9 0 -13 4 -10 10 3 6 -16 8 -50 7 -31 -2 -59 1
-61 5 -3 4 21 9 53 10 32 1 69 2 83 2 44 2 33 21 -17 29 -59 10 -64 10 -83 6
-14 -4 -20 -8 -54 -37 -8 -6 -30 -12 -48 -11 -32 0 -33 0 -8 11 24 10 24 10 5
18 -11 5 -14 9 -6 9 22 1 -30 45 -85 70 -87 42 -185 46 -378 19 -93 -13 -112
-15 -148 -17 l-28 -1 0 -339 0 -339 59 -7 c62 -7 168 2 176 15 3 4 34 7 70 5
36 -1 68 2 71 7 3 4 14 3 25 -2 12 -7 25 -7 37 -1 9 5 30 7 46 4 19 -4 27 -2
23 4 -4 6 -1 16 6 22 10 8 24 6 52 -9 28 -14 58 -20 109 -19 39 0 98 -4 130
-10 33 -6 77 -8 98 -5 42 7 88 -2 88 -17 0 -5 9 -19 20 -31 23 -25 26 -48 8
-48 -9 0 -8 -4 2 -10 8 -5 10 -10 4 -10 -5 0 -19 7 -30 15 -26 20 -40 19 -23
-2 13 -15 12 -15 -8 -5 -25 14 -36 15 -29 4 2 -4 -4 -8 -14 -8 -10 0 -18 3
-18 6 2 26 -3 30 -23 20 -11 -7 -28 -9 -37 -5 -12 4 -10 -1 5 -15 28 -26 29
-36 3 -36 -11 0 -20 3 -20 6 0 3 -15 5 -32 5 -18 -1 -45 4 -59 11 -15 7 -29
10 -33 7 -3 -4 -6 -2 -6 3 0 12 -71 15 -86 3 -14 -12 -67 -8 -76 5 -9 14 -60
-33 -51 -47 4 -6 1 -7 -6 -3 -9 6 -9 12 3 25 9 10 16 21 16 26 0 4 -11 -4 -25
-19 -27 -29 -35 -32 -35 -12 0 17 -22 15 -46 -4 -11 -9 -15 -10 -10 -2 8 14
10 13 -62 16 -33 2 -52 -1 -51 -8 3 -24 -2 -34 -17 -40 -14 -5 -15 -4 -4 9 10
12 10 15 -3 15 -9 0 -19 -5 -22 -10 -5 -8 -12 -7 -23 2 -13 11 -15 11 -9 -4 7
-21 -18 -45 -29 -27 -5 8 -3 10 7 4 8 -5 10 -4 6 0 -13 15 -37 14 -37 0 0 -16
31 -28 53 -20 8 4 18 1 22 -5 4 -7 11 -8 18 -1 7 5 23 9 37 9 14 -1 39 2 56 5
23 5 33 3 37 -7 3 -8 1 -17 -6 -20 -7 -2 6 -4 28 -4 22 0 34 2 27 5 -22 9 -3
20 27 15 17 -2 28 -8 25 -13 -3 -5 54 -9 130 -9 114 0 136 3 144 16 8 15 10
15 15 0 4 -9 15 -16 26 -16 14 0 19 5 15 15 -4 8 -1 15 5 15 6 0 11 -7 11 -15
0 -8 8 -15 18 -14 10 0 12 3 5 6 -30 11 -11 28 32 28 25 1 45 -3 45 -7 0 -8
-15 -12 -37 -9 -6 1 -14 -3 -18 -9 -4 -6 11 -10 39 -10 26 0 47 5 50 13 5 10
7 10 12 0 3 -7 12 -13 20 -13 9 0 13 4 10 9 -3 5 2 12 11 15 10 4 20 1 25 -9
5 -8 19 -15 31 -15 17 0 19 2 8 9 -11 7 -10 10 5 13 10 2 25 -3 32 -12 8 -8
11 -10 8 -3 -10 20 30 25 69 8 43 -17 59 -19 50 -5 -3 6 -1 10 4 10 6 0 11 -4
11 -9 0 -12 90 -5 103 8 17 17 31 13 17 -4 -11 -14 10 -15 186 -14 172 1 196
3 179 15 -10 8 -16 16 -13 19 3 3 16 -4 31 -15 21 -17 40 -20 117 -20 80 0 91
2 86 16 -3 9 -6 19 -6 23 0 9 -31 8 -47 -2 -7 -4 -22 -5 -35 -2 -49 11 -121
14 -316 15 -111 1 -200 5 -197 10 3 5 -3 16 -12 26 -17 16 -18 16 -21 1 -2 -9
-7 -17 -12 -17 -5 0 -7 -7 -3 -16 3 -9 -6 -4 -21 10 -14 15 -26 30 -26 33 0
23 40 84 68 102 20 13 35 33 38 51 4 16 12 31 20 34 7 3 11 12 8 21 -3 8 -1
15 6 15 6 0 9 4 5 9 -3 5 4 16 16 25 12 8 19 21 16 28 -2 8 1 25 9 39 16 29
18 53 4 44 -7 -4 -9 2 -4 19 4 16 2 26 -5 26 -6 0 -11 9 -11 20 0 11 -4 20
-10 20 -5 0 -10 16 -10 35 0 25 -4 35 -16 35 -13 0 -12 5 5 26 21 27 30 80 11
69 -15 -9 -12 20 5 61 17 41 11 58 -16 51 -17 -5 -17 -4 -1 21 9 14 17 31 18
39 2 8 9 22 17 31 8 10 17 31 19 47 1 17 9 36 16 43 6 7 12 25 13 40 0 24 1
25 9 7 8 -19 9 -19 9 2 1 25 17 39 24 21 3 -7 6 -1 6 14 1 30 21 49 22 21 0
-11 3 -13 6 -5 2 6 9 10 14 6 5 -3 9 9 9 26 0 17 4 29 10 25 5 -3 7 -13 4 -23
-5 -14 -3 -14 10 2 9 11 16 16 16 10 0 -5 5 -2 10 7 5 9 8 26 5 38 -2 12 0 19
6 16 5 -4 9 -17 9 -30 0 -21 23 -41 43 -37 4 1 6 -4 5 -10 -2 -7 3 -12 10 -10
8 1 11 -2 7 -7 -8 -13 16 -51 32 -51 7 0 13 -8 13 -17 0 -16 2 -16 11 -3 9 12
10 12 5 -3 -4 -11 3 -31 16 -50 21 -30 27 -88 8 -95 -4 -1 -6 -16 -4 -32 2
-17 -1 -30 -6 -30 -12 0 -1 -83 12 -88 4 -2 8 -8 8 -13 0 -6 -5 -7 -12 -3 -8
5 -9 2 -5 -10 4 -10 7 -20 7 -22 0 -2 5 -4 11 -4 5 0 8 4 4 9 -3 5 0 13 6 17
7 4 9 3 5 -4 -3 -6 3 -20 15 -31 14 -12 20 -27 16 -40 -3 -12 1 -22 9 -25 8
-3 14 -17 14 -31 0 -15 -4 -24 -9 -21 -5 3 -7 16 -5 29 4 20 3 20 -7 -3 -8
-19 -13 -21 -17 -10 -5 15 -21 30 -33 30 -4 0 -3 -19 1 -43 5 -23 7 -44 4 -46
-2 -2 11 -25 30 -50 18 -25 39 -62 46 -82 12 -33 11 -42 -8 -82 -12 -26 -19
-54 -16 -64 4 -13 3 -15 -4 -5 -17 24 -23 -30 -6 -56 8 -12 12 -27 9 -32 -3
-5 -1 -11 5 -15 5 -3 10 -24 10 -45 l0 -39 149 2 c82 1 153 5 157 10 11 11 84
9 84 -3 0 -5 24 -10 54 -10 53 0 91 -20 66 -35 -5 -3 -10 1 -10 10 0 9 -5 13
-10 10 -6 -4 -8 -11 -5 -16 4 -5 1 -9 -4 -9 -6 0 -11 4 -11 9 0 8 -52 14 -105
12 -11 -1 -36 -1 -55 -2 -27 0 -36 -5 -37 -18 -2 -18 18 -19 410 -18 227 0
404 2 395 4 -10 3 -18 9 -18 15 0 6 10 4 23 -4 13 -9 52 -16 94 -17 63 -2 72
0 67 13 -8 20 10 21 29 1 21 -21 807 -22 807 -1 0 8 -7 19 -16 27 -13 10 -17
10 -25 -2 -6 -9 -9 -10 -9 -2 0 15 35 35 44 25 4 -3 4 1 1 10 -4 10 -13 14
-22 11 -11 -4 -14 -2 -9 5 10 17 -19 15 -52 -2 -22 -12 -35 -12 -65 -3 -35 11
-52 30 -24 26 6 -1 49 -1 95 0 l82 1 0 321 0 322 -87 -6 c-49 -3 -121 -14
-162 -23 -62 -14 -82 -15 -120 -5 -25 6 -64 13 -86 15 -38 4 -40 6 -41 36 0
23 -7 36 -25 46 -37 20 -42 17 -36 -22 l6 -36 -47 6 c-26 4 -77 9 -114 11
l-66 4 -7 -41 c-7 -41 -8 -41 -21 -17 -13 23 -13 23 -14 2 0 -12 5 -34 11 -49
l10 -28 -22 19 -21 20 5 -35 c2 -19 8 -48 13 -65 7 -27 6 -29 -9 -16 -15 12
-17 9 -17 -33 0 -25 -4 -46 -10 -46 -5 0 -10 6 -11 13 0 6 -5 1 -10 -13 -6
-13 -7 -35 -4 -48 4 -15 2 -21 -5 -17 -6 3 -10 -3 -10 -15 0 -12 -4 -18 -10
-15 -6 4 -10 -5 -10 -20 0 -15 -7 -33 -15 -41 -8 -9 -15 -26 -15 -39 0 -13 -7
-28 -17 -33 -9 -6 -14 -16 -10 -25 3 -9 2 -19 -4 -22 -5 -4 -7 -11 -4 -16 3
-5 -1 -6 -9 -3 -11 4 -16 0 -16 -10 0 -9 -5 -16 -12 -16 -6 0 -9 -3 -6 -6 4
-3 0 -17 -8 -32 -7 -15 -10 -30 -6 -34 9 -9 166 -12 247 -4 35 3 45 2 25 -2
-50 -10 -23 -22 45 -21 39 1 60 -3 66 -12 7 -11 9 -11 9 3 0 15 7 17 45 13 32
-3 44 -1 42 8 -1 7 10 13 27 15 18 2 26 0 21 -7 -3 -6 -14 -11 -23 -11 -14 0
-15 -2 -2 -10 9 -6 17 -5 22 3 10 16 20 3 12 -17 -3 -9 -10 -13 -15 -10 -5 3
-15 2 -21 -2 -17 -11 -50 -10 -67 1 -11 6 -13 3 -9 -13 4 -12 2 -20 -3 -16 -5
3 -9 13 -9 22 0 12 -3 13 -8 5 -9 -14 -68 -9 -88 8 -11 9 -14 9 -14 0 0 -15
-38 -5 -63 17 -15 13 -22 14 -37 4 -12 -7 -21 -8 -25 -2 -3 5 -26 7 -53 3 -52
-7 -93 -7 -134 0 -28 4 -39 -7 -15 -16 6 -2 9 -8 5 -11 -3 -4 -16 2 -27 13
-20 20 -21 20 -21 2 0 -29 -15 -33 -29 -8 -10 20 -21 23 -69 24 -51 0 -54 -1
-29 -10 15 -6 27 -18 26 -26 0 -11 -2 -12 -6 -3 -2 7 -22 12 -44 12 -30 0 -39
-4 -39 -17 0 -13 -3 -14 -11 -6 -7 7 -25 9 -40 6 -22 -4 -29 -2 -29 11 0 13
11 16 55 16 30 0 55 5 55 10 0 8 -123 15 -132 8 -2 -1 -15 10 -30 25 -26 26
-39 27 -89 12 -10 -4 -19 -10 -19 -15 0 -5 -7 -7 -16 -3 -10 4 -14 13 -10 29
4 13 1 24 -7 27 -9 3 -9 9 1 26 6 11 12 33 12 48 0 20 3 24 9 14 5 -8 7 -21 4
-30 -2 -9 3 -4 11 11 18 29 11 62 -10 54 -8 -3 -14 -1 -14 5 0 6 -5 7 -10 4
-6 -4 -8 -21 -4 -42 5 -24 3 -34 -4 -29 -6 3 -13 -3 -17 -14 -3 -11 -12 -20
-20 -20 -15 0 -27 38 -14 46 13 8 11 24 -3 20 -7 -1 -10 -1 -5 1 4 3 7 11 7
19 0 8 6 14 13 14 8 0 8 3 -2 9 -12 8 -12 13 -3 24 13 15 6 51 -8 42 -4 -3
-10 2 -13 10 -4 10 -1 12 10 8 11 -4 14 -2 9 5 -4 7 -2 12 6 12 10 0 13 20 12
80 -1 44 1 78 4 76 9 -10 30 21 36 55 5 27 4 30 -4 11 -13 -30 -19 -28 -14 5
2 16 7 48 10 72 4 29 3 41 -4 37 -6 -3 -12 -3 -15 1 -2 5 -3 3 -1 -3 1 -6 -2
-17 -7 -25 -6 -10 -9 -2 -10 26 -1 22 0 46 1 54 1 8 -9 2 -22 -13 l-23 -27 1
38 c0 43 12 75 24 68 4 -3 11 3 14 12 4 10 4 14 0 10 -12 -11 -33 26 -24 43
14 26 20 111 8 104 -11 -7 -10 2 11 89 5 20 5 37 1 37 -5 0 -10 -5 -12 -12 -3
-7 -7 -5 -11 6 -4 9 -3 15 1 13 4 -3 16 5 27 16 l20 20 -23 -13 c-13 -6 -26
-9 -30 -6 -3 3 -1 6 5 6 6 0 13 12 16 27 3 16 10 45 15 66 7 26 7 37 -1 37 -7
0 -7 4 1 12 16 16 15 25 -2 31 -10 4 -13 1 -10 -7 6 -15 -12 -31 -20 -18 -2 4
-6 31 -8 59 -2 28 -6 49 -11 46 -4 -2 -5 -18 -2 -34 7 -37 -13 -79 -26 -58 -5
8 -9 23 -9 34 0 11 -7 33 -15 48 -8 15 -12 34 -8 42 3 8 1 15 -5 15 -5 0 -17
15 -26 33 l-16 32 -1 -40 c0 -22 -5 -51 -9 -65 -6 -18 -8 -7 -9 40 -1 39 4 71
11 78 6 6 13 20 14 29 1 10 6 28 9 41 5 13 3 22 -4 22 -5 0 -8 -8 -5 -17 2
-10 -1 -8 -7 5 -7 12 -15 22 -18 22 -20 -1 -31 -22 -32 -68 -1 -28 -6 -49 -10
-46 -4 2 -15 -8 -23 -23 l-15 -28 4 30 c2 17 4 30 5 30 10 0 9 78 -1 111 -14
46 -34 59 -36 23 -1 -12 -4 -24 -8 -27 -13 -13 -24 17 -27 78 -2 55 -6 65 -21
65 -24 0 -37 22 -37 63 0 18 -3 31 -8 28 -4 -2 -6 -25 -4 -50 2 -25 8 -43 13
-40 5 3 9 0 9 -5 0 -6 -5 -11 -11 -11 -6 0 -9 -7 -6 -15 9 -21 -29 -124 -37
-104 -4 8 -3 26 2 40 7 20 8 52 3 90 -1 3 -8 6 -16 6 -8 0 -12 -4 -9 -9 3 -4
-2 -8 -10 -8 -9 0 -15 -3 -15 -7 3 -20 -2 -31 -17 -37 -14 -5 -15 -4 -5 8 6 7
13 34 15 60 3 41 2 45 -13 34 -8 -7 -5 0 7 16 25 33 29 58 7 50 -8 -4 -15 -12
-15 -18 0 -7 -5 -17 -12 -24 -9 -9 -14 -7 -23 5 -16 21 -7 63 11 56 8 -3 14 0
14 6 0 19 -53 6 -61 -15 -5 -12 -8 -14 -8 -4 0 8 6 24 14 34 8 11 15 30 15 42
0 12 7 24 15 28 9 3 12 12 9 23 -4 13 -3 15 4 5 5 -8 11 -14 14 -15 6 -3 32
24 44 44 22 39 76 91 97 93 34 3 47 15 47 42 0 21 9 29 33 25 7 -1 11 15 8 32
-1 5 3 6 9 2 6 -3 7 -11 4 -17 -5 -7 -1 -9 9 -5 11 4 17 1 17 -8 0 -8 7 -15
16 -15 13 0 15 6 10 28 -5 20 -4 23 4 12 8 -13 10 -12 10 5 1 19 2 19 14 3 7
-10 16 -15 19 -11 4 3 2 12 -4 19 -6 7 -9 19 -6 26 4 9 6 9 6 -2 1 -8 10 -21
20 -27 15 -10 20 -9 25 2 3 8 -2 18 -11 23 -10 6 -13 14 -8 22 6 10 10 10 19
-1 13 -17 51 -26 41 -10 -3 6 1 11 9 11 8 0 17 -4 20 -9 3 -4 17 -6 31 -4 20
4 23 9 15 23 -5 9 -6 21 -2 25 4 5 2 5 -4 2 -17 -10 -35 16 -24 33 5 8 12 11
17 7 4 -5 1 -12 -7 -17 -13 -8 -12 -10 3 -10 12 0 17 8 17 30 0 23 -5 31 -25
36 -16 4 -25 14 -26 28 -1 15 -3 13 -9 -9 -6 -25 -8 -27 -14 -13 -5 10 -13 15
-19 11 -6 -4 -8 2 -5 15 4 12 2 20 -3 16 -5 -3 -9 2 -9 10 0 10 6 13 18 9 15
-6 15 -5 3 11 -8 9 -20 15 -28 12 -13 -5 -17 10 -14 46 2 20 -12 30 -32 22 -9
-3 -14 -13 -11 -22 3 -9 -2 -5 -11 11 -9 15 -13 32 -10 37 3 5 1 11 -5 15 -6
4 -10 -5 -10 -20 0 -15 -4 -24 -10 -20 -6 3 -7 17 -4 31 5 18 3 24 -7 22 -8
-2 -13 3 -11 10 1 6 -4 12 -12 12 -7 0 -20 8 -27 17 -10 11 -10 14 -1 9 6 -4
12 -3 12 3 0 6 -11 13 -25 17 -16 4 -27 16 -31 33 -8 32 -23 53 -34 46 -10 -6
-50 43 -50 61 0 8 -4 14 -8 14 -16 0 -32 -25 -32 -50 0 -38 -20 -58 -65 -63
-22 -3 -58 -10 -80 -17 -22 -7 -62 -13 -90 -15 l-50 -3 50 14 c28 7 62 14 78
14 39 0 34 20 -5 21 l-33 1 28 12 c31 14 26 25 -12 27 -22 1 -20 3 9 9 19 4
27 8 16 9 -11 0 -16 6 -13 14 4 10 -15 19 -59 32 -36 10 -67 22 -70 27 -3 5
-10 6 -15 3 -5 -4 -9 -1 -9 6 0 7 8 9 21 6 12 -3 18 -2 13 3 -5 4 -18 10 -29
13 -11 3 5 3 35 1 47 -3 51 -2 25 6 -36 12 -63 18 -90 20 -19 1 -19 1 -2 14
10 8 28 12 40 10 l22 -5 -22 10 c-31 14 -29 23 5 16 26 -5 26 -5 4 7 -13 6
-21 17 -18 24 3 9 -12 12 -57 12 -71 -1 -96 4 -105 19 -4 6 -20 15 -35 18
l-27 7 0 -55z m465 -307 c-3 -5 -12 -10 -18 -10 -7 0 -6 4 3 10 19 12 23 12
15 0z m-15 -24 c0 -2 -18 -14 -41 -25 -22 -12 -38 -17 -34 -11 19 31 -39 -2
-209 -120 -21 -14 -21 -14 -2 8 11 12 44 39 75 59 30 20 50 38 44 40 -7 3 -21
0 -32 -6 -11 -6 -23 -11 -28 -11 -4 1 5 8 20 16 15 8 36 12 47 9 10 -3 36 3
58 14 22 11 42 18 45 15 3 -3 14 -1 24 5 19 11 33 14 33 7z m-330 -16 c0 -5
-2 -10 -4 -10 -3 0 -8 5 -11 10 -3 6 -1 10 4 10 6 0 11 -4 11 -10z m222 -62
c-7 -7 -12 -8 -12 -2 0 14 12 26 19 19 2 -3 -1 -11 -7 -17z m-137 2 c-3 -5
-12 -10 -18 -10 -7 0 -6 4 3 10 19 12 23 12 15 0z m555 -55 c0 -5 -5 -3 -10 5
-7 11 -12 12 -21 3 -6 -6 -18 -9 -27 -6 -10 4 -13 2 -8 -5 8 -14 -3 -15 -23
-3 -9 6 0 13 30 22 43 14 59 10 59 -16z m-400 -822 c-10 -16 -11 -15 -6 7 3
14 6 34 7 45 1 13 3 11 6 -7 2 -15 -1 -35 -7 -45z m194 2 c3 -8 1 -15 -4 -15
-6 0 -10 7 -10 15 0 8 2 15 4 15 2 0 6 -7 10 -15z m-118 -52 c-10 -10 -19 5
-10 18 6 11 8 11 12 0 2 -7 1 -15 -2 -18z m-4 -35 c-7 -7 -12 -8 -12 -2 0 6 3
14 7 17 3 4 9 5 12 2 2 -3 -1 -11 -7 -17z m-135 -180 c-3 -8 -6 -5 -6 6 -1 11
2 17 5 13 3 -3 4 -12 1 -19z m360 -40 c-3 -8 -6 -5 -6 6 -1 11 2 17 5 13 3 -3
4 -12 1 -19z m-110 -40 c-3 -7 -5 -2 -5 12 0 14 2 19 5 13 2 -7 2 -19 0 -25z
m170 -10 c-3 -8 -6 -5 -6 6 -1 11 2 17 5 13 3 -3 4 -12 1 -19z m-820 -20 c-3
-8 -6 -5 -6 6 -1 11 2 17 5 13 3 -3 4 -12 1 -19z m950 -45 c-3 -10 -5 -4 -5
12 0 17 2 24 5 18 2 -7 2 -21 0 -30z m-207 -2 c0 -6 -4 -13 -10 -16 -5 -3 -10
1 -10 9 0 9 5 16 10 16 6 0 10 -4 10 -9z m-13 -93 c-2 -13 -4 -5 -4 17 -1 22
1 32 4 23 2 -10 2 -28 0 -40z m334 -1 c-8 -8 -11 -7 -11 4 0 20 13 34 18 19 3
-7 -1 -17 -7 -23z m-354 -49 c-3 -7 -5 -2 -5 12 0 14 2 19 5 13 2 -7 2 -19 0
-25z m336 -93 c4 -8 2 -17 -3 -20 -6 -4 -10 3 -10 14 0 25 6 27 13 6z m-486
-97 c-3 -7 -5 -2 -5 12 0 14 2 19 5 13 2 -7 2 -19 0 -25z m60 -340 c-3 -8 -6
-5 -6 6 -1 11 2 17 5 13 3 -3 4 -12 1 -19z m481 -73 c-3 -3 -9 2 -12 12 -6 14
-5 15 5 6 7 -7 10 -15 7 -18z m1299 -457 c-3 -8 -6 -5 -6 6 -1 11 2 17 5 13 3
-3 4 -12 1 -19z m-1227 -54 c0 -2 -17 -4 -37 -3 -29 0 -33 2 -18 8 18 7 55 4
55 -5z m83 9 c-7 -2 -21 -2 -30 0 -10 3 -4 5 12 5 17 0 24 -2 18 -5z m1025 -4
c20 -7 29 -15 25 -22 -4 -7 -7 -21 -5 -32 2 -18 1 -18 -10 2 -6 13 -15 23 -20
23 -5 0 -6 5 -3 10 4 6 -5 10 -19 10 -14 0 -26 5 -26 10 0 13 19 13 58 -1z
m-2483 -19 c3 -5 1 -10 -4 -10 -6 0 -11 5 -11 10 0 6 2 10 4 10 3 0 8 -4 11
-10z m1465 -10 c0 -23 -10 -26 -28 -8 -10 10 -14 10 -21 0 -6 -10 -13 -10 -36
2 l-28 15 34 4 c74 9 79 8 79 -13z m290 -12 c0 -5 -4 -8 -10 -8 -5 0 -10 5
-10 11 0 5 -4 7 -10 4 -5 -3 -10 1 -10 9 0 14 3 14 20 4 11 -7 20 -16 20 -20z
m334 16 c3 -8 2 -12 -4 -9 -6 3 -10 10 -10 16 0 14 7 11 14 -7z m-582 -6 c-9
-9 -15 -9 -24 0 -9 9 -7 12 12 12 19 0 21 -3 12 -12z m531 -8 c3 -11 0 -23 -5
-27 -6 -3 -8 -1 -4 5 3 6 2 13 -4 17 -6 4 -8 11 -5 16 9 13 12 11 18 -11z
m627 10 c0 -5 -2 -10 -4 -10 -3 0 -8 5 -11 10 -3 6 -1 10 4 10 6 0 11 -4 11
-10z m136 -11 c5 -8 -1 -10 -19 -5 -16 4 -27 1 -30 -7 -3 -7 -6 -5 -6 6 -1 20
43 25 55 6z m-226 -16 c0 -13 -3 -14 -11 -6 -6 6 -19 9 -28 6 -14 -4 -14 -3
-1 6 22 16 40 13 40 -6z m-2965 -3 c3 -5 1 -10 -4 -10 -6 0 -11 5 -11 10 0 6
2 10 4 10 3 0 8 -4 11 -10z m3225 0 c0 -5 -4 -10 -10 -10 -5 0 -10 5 -10 10 0
6 5 10 10 10 6 0 10 -4 10 -10z"/>
<path d="M1444 3068 c-3 -4 -2 -8 3 -8 4 0 18 -3 31 -6 17 -5 21 -3 17 8 -6
15 -43 19 -51 6z"/>
<path d="M1765 2831 c-3 -5 -2 -12 3 -15 5 -3 9 1 9 9 0 17 -3 19 -12 6z"/>
<path d="M2015 2791 c-3 -5 -1 -12 4 -15 5 -3 11 1 15 9 6 16 -9 21 -19 6z"/>
<path d="M2408 2783 c6 -2 18 -2 25 0 6 3 1 5 -13 5 -14 0 -19 -2 -12 -5z"/>
<path d="M2330 2771 c0 -11 56 -20 71 -11 6 4 1 10 -13 13 -33 9 -58 8 -58 -2z"/>
<path d="M2330 2721 c0 -10 70 -38 105 -43 38 -5 21 26 -20 38 -49 15 -85 17
-85 5z"/>
<path d="M2315 2659 c8 -11 80 -49 95 -49 20 0 10 17 -17 30 -44 20 -84 30
-78 19z"/>
<path d="M2166 2613 c-6 -14 -5 -15 5 -6 7 7 10 15 7 18 -3 3 -9 -2 -12 -12z"/>
<path d="M2210 2616 c0 -2 8 -10 18 -17 15 -13 16 -12 3 4 -13 16 -21 21 -21
13z"/>
<path d="M2317 2609 c7 -7 15 -10 18 -7 3 3 -2 9 -12 12 -14 6 -15 5 -6 -5z"/>
<path d="M2341 2590 c-10 -5 -9 -8 2 -13 7 -3 19 -2 26 3 10 5 9 8 -2 13 -7 3
-19 2 -26 -3z"/>
<path d="M2250 2573 c0 -4 5 -15 10 -23 8 -13 10 -13 10 2 0 9 -4 20 -10 23
-5 3 -10 3 -10 -2z"/>
<path d="M686 2181 c-4 -7 -5 -15 -2 -18 9 -9 19 4 14 18 -4 11 -6 11 -12 0z"/>
<path d="M1806 1963 c-6 -14 -5 -15 5 -6 7 7 10 15 7 18 -3 3 -9 -2 -12 -12z"/>
<path d="M1977 1873 c-4 -3 -7 -13 -7 -22 1 -13 3 -13 11 2 11 19 8 33 -4 20z"/>
<path d="M2030 1836 c0 -8 5 -18 10 -21 6 -3 10 1 10 9 0 8 -4 18 -10 21 -5 3
-10 -1 -10 -9z"/>
<path d="M2015 1810 c-3 -5 1 -13 10 -16 22 -9 29 1 11 15 -10 8 -16 9 -21 1z"/>
<path d="M2181 1704 c0 -11 3 -14 6 -6 3 7 2 16 -1 19 -3 4 -6 -2 -5 -13z"/>
<path d="M2131 1694 c0 -11 3 -14 6 -6 3 7 2 16 -1 19 -3 4 -6 -2 -5 -13z"/>
<path d="M2108 1652 c6 -62 12 -67 12 -9 0 25 -4 48 -9 51 -5 3 -6 -16 -3 -42z"/>
<path d="M2267 1533 c3 -13 9 -23 13 -23 5 0 11 -8 13 -17 4 -15 5 -16 6 -2 0
9 -8 27 -18 40 l-20 24 6 -22z"/>
<path d="M1127 1493 c-11 -10 -8 -43 3 -43 6 0 10 11 10 25 0 26 -2 29 -13 18z"/>
<path d="M895 1479 c-4 -6 -5 -13 -2 -16 7 -7 27 6 27 18 0 12 -17 12 -25 -2z"/>
<path d="M675 1470 c3 -5 8 -10 11 -10 2 0 4 5 4 10 0 6 -5 10 -11 10 -5 0 -7
-4 -4 -10z"/>
<path d="M1110 1430 c0 -5 5 -10 11 -10 5 0 7 5 4 10 -3 6 -8 10 -11 10 -2 0
-4 -4 -4 -10z"/>
<path d="M2364 1300 c1 -32 6 -63 10 -67 5 -4 6 11 3 34 -2 22 -1 45 3 50 5 4
3 16 -4 25 -11 15 -13 9 -12 -42z"/>
<path d="M3810 1201 c0 -12 26 -32 33 -25 9 10 -4 34 -19 34 -8 0 -14 -4 -14
-9z"/>
<path d="M3792 1139 c2 -7 10 -15 17 -17 8 -3 12 1 9 9 -2 7 -10 15 -17 17 -8
3 -12 -1 -9 -9z"/>
<path d="M3860 1105 c0 -8 5 -15 10 -15 6 0 10 7 10 15 0 8 -4 15 -10 15 -5 0
-10 -7 -10 -15z"/>
<path d="M3780 1096 c0 -9 7 -16 16 -16 17 0 14 22 -4 28 -7 2 -12 -3 -12 -12z"/>
<path d="M990 1050 c0 -5 5 -10 10 -10 6 0 10 5 10 10 0 6 -4 10 -10 10 -5 0
-10 -4 -10 -10z"/>
<path d="M3750 1031 c0 -5 7 -12 16 -15 22 -9 24 -8 24 9 0 8 -9 15 -20 15
-11 0 -20 -4 -20 -9z"/>
<path d="M3500 926 c0 -30 14 -41 29 -22 9 11 8 18 -4 30 -22 21 -25 20 -25
-8z"/>
<path d="M2323 897 c0 -7 9 -14 19 -14 11 -1 18 5 17 15 0 11 -2 13 -6 4 -3
-9 -9 -10 -17 -3 -9 8 -13 7 -13 -2z"/>
<path d="M3764 894 c3 -9 6 -18 6 -20 0 -2 7 -4 15 -4 8 0 15 9 15 20 0 14 -7
20 -21 20 -15 0 -19 -4 -15 -16z"/>
<path d="M3725 870 c-3 -5 1 -10 10 -10 9 0 13 5 10 10 -3 6 -8 10 -10 10 -2
0 -7 -4 -10 -10z"/>
<path d="M3900 850 c0 -5 5 -10 10 -10 6 0 10 5 10 10 0 6 -4 10 -10 10 -5 0
-10 -4 -10 -10z"/>
<path d="M678 828 c17 -8 26 -8 34 0 9 9 4 12 -22 11 -33 0 -34 -1 -12 -11z"/>
<path d="M3737 803 c-10 -9 5 -33 19 -33 18 0 18 26 0 33 -8 3 -16 3 -19 0z"/>
<path d="M1778 643 c7 -3 16 -2 19 1 4 3 -2 6 -13 5 -11 0 -14 -3 -6 -6z"/>
<path d="M1761 621 c-8 -5 -10 -14 -5 -22 4 -7 11 -29 15 -49 6 -31 7 -28 8
23 0 31 0 57 -1 57 -2 0 -9 -4 -17 -9z"/>
<path d="M2359 503 c-13 -16 -12 -17 4 -4 16 13 21 21 13 21 -2 0 -10 -8 -17
-17z"/>
<path d="M1800 455 c0 -8 4 -15 10 -15 5 0 7 7 4 15 -4 8 -8 15 -10 15 -2 0
-4 -7 -4 -15z"/>
<path d="M2625 100 c-3 -5 1 -10 9 -10 9 0 16 5 16 10 0 6 -4 10 -9 10 -6 0
-13 -4 -16 -10z"/>
<path d="M2810 80 c0 -5 5 -10 10 -10 6 0 10 5 10 10 0 6 -4 10 -10 10 -5 0
-10 -4 -10 -10z"/>
<path d="M1996 35 c-25 -19 -12 -35 31 -35 20 0 33 3 30 6 -3 4 -2 15 4 25 8
17 6 19 -18 19 -15 0 -36 -7 -47 -15z"/>
<path d="M2080 42 c0 -6 -3 -17 -6 -26 -5 -13 1 -16 25 -16 26 0 30 3 27 23
-3 22 -46 39 -46 19z m30 -22 c0 -5 -7 -10 -16 -10 -8 0 -12 5 -9 10 3 6 10
10 16 10 5 0 9 -4 9 -10z"/>
<path d="M1960 15 c0 -8 4 -15 10 -15 5 0 7 7 4 15 -4 8 -8 15 -10 15 -2 0 -4
-7 -4 -15z"/>
<path d="M5 10 c-4 -6 11 -10 37 -9 36 1 39 2 18 9 -36 11 -48 11 -55 0z"/>
<path d="M138 3 c6 -2 18 -2 25 0 6 3 1 5 -13 5 -14 0 -19 -2 -12 -5z"/>
<path d="M1158 3 c7 -3 16 -2 19 1 4 3 -2 6 -13 5 -11 0 -14 -3 -6 -6z"/>
</g>
</svg>
